<?xml version="1.0" encoding="UTF-8"?>
<svg width="274px" height="185px" viewBox="0 0 274 185" version="1.1" xmlns="http://www.w3.org/2000/svg" xmlns:xlink="http://www.w3.org/1999/xlink">
    <title>logo gnr - wit en donkergroen copy</title>
    <g id="Stylesheet" stroke="none" stroke-width="1" fill="none" fill-rule="evenodd">
        <g id="Icons-and-symbols" transform="translate(-695.000000, -351.000000)" fill-rule="nonzero">
            <g id="logo-gnr---wit-en-donkergroen-copy" transform="translate(695.016889, 351.764317)">
                <polygon id="Path" fill="#026E69" points="242.302907 183.476198 0 183.476198 0 118.225572 210.878608 118.225572"></polygon>
                <path d="M12.7947137,144.983422 C11.7806249,144.472332 10.9356553,143.679335 10.361304,142.699687 C9.7723413,141.672315 9.47439586,140.503902 9.49947137,139.319951 L9.49947137,130.609889 C9.47801605,129.426357 9.7757197,128.258891 10.361304,127.230154 C10.9331734,126.249128 11.778871,125.456286 12.7947137,124.948832 C13.9211299,124.398551 15.1624672,124.124629 16.415859,124.149766 C17.6576996,124.12404 18.8874328,124.398142 20.000793,124.948832 C20.997774,125.449339 21.8342106,126.219697 22.4148899,127.172215 C22.9999266,128.159808 23.2983535,129.290821 23.2767225,130.438488 L23.2767225,130.851299 C23.2888994,130.934677 23.2611484,131.018927 23.2018036,131.078746 C23.1424588,131.138566 23.0584329,131.166987 22.9749604,131.155475 L21.9875947,131.155475 C21.9041222,131.166987 21.8200963,131.138566 21.7607515,131.078746 C21.7014066,131.018927 21.6736556,130.934677 21.6858326,130.851299 L21.6858326,130.457801 C21.6858326,129.009343 21.2030132,127.830459 20.2373744,126.921149 C19.2717357,126.011839 17.9978972,125.561208 16.415859,125.569255 C14.8241645,125.569255 13.5366461,126.027933 12.553304,126.94529 C11.5699618,127.862647 11.0815095,129.069696 11.0879471,130.566436 L11.0879471,139.397202 C11.0879471,140.889114 11.5763994,142.096162 12.553304,143.018348 C13.5302085,143.940533 14.8257739,144.399211 16.44,144.394383 C18.0123818,144.394383 19.2773686,143.955822 20.2349604,143.0787 C21.1925521,142.201578 21.6753715,141.037179 21.6834185,139.585502 L21.6834185,136.517185 C21.6883747,136.483897 21.6772628,136.45023 21.6534654,136.426433 C21.6296681,136.402635 21.5960012,136.391523 21.5627137,136.39648 L16.8479824,136.39648 C16.7641249,136.40884 16.6793637,136.380796 16.6194268,136.320859 C16.5594899,136.260922 16.5314455,136.176161 16.5438062,136.092303 L16.5438062,135.276339 C16.5322939,135.192866 16.5607153,135.10884 16.6205349,135.049495 C16.6803545,134.990151 16.7646042,134.9624 16.8479824,134.974577 L22.9870308,134.974577 C23.0700239,134.963241 23.153543,134.991367 23.2127728,135.050597 C23.2720026,135.109827 23.3001282,135.193346 23.288793,135.276339 L23.288793,139.208903 C23.288793,141.243182 22.6635419,142.85258 21.4130396,144.037096 C20.1625374,145.221613 18.4968106,145.809044 16.415859,145.799387 C15.1605116,145.82497 13.9177682,145.544938 12.7947137,144.983422 Z" id="Path" fill="#FFFFFF"></path>
                <path d="M30.1762115,144.68166 C29.1726275,143.944354 28.447783,142.889416 28.1194009,141.68818 C27.897304,140.883481 27.7862555,139.623323 27.7862555,137.907704 C27.7862555,136.192086 27.897304,134.942389 28.1194009,134.158612 C28.4475786,132.961209 29.1728084,131.910818 30.1762115,131.179616 C31.1724288,130.442512 32.3971806,130.074765 33.850467,130.076374 C35.1539846,130.042975 36.4328678,130.435369 37.4933392,131.194101 C38.4955268,131.91678 39.2163779,132.96436 39.5332511,134.158612 C39.6621859,134.668962 39.7430092,135.190272 39.7746608,135.715704 C39.8132863,136.290259 39.8350132,137.021731 39.8350132,137.907704 C39.8350132,138.834718 39.8132863,139.580673 39.7746608,140.145572 C39.7422945,140.666159 39.661475,141.182595 39.5332511,141.68818 C39.2222711,142.892952 38.5008806,143.951561 37.4933392,144.68166 C36.4229658,145.444375 35.1328689,145.836829 33.8190837,145.799387 C32.5148367,145.838156 31.2342755,145.445246 30.1762115,144.68166 L30.1762115,144.68166 Z M36.542185,143.486682 C37.2913209,142.902156 37.8102255,142.072079 38.0075419,141.142594 C38.1507783,140.600227 38.2215918,139.532392 38.2200092,137.939088 C38.218373,136.345784 38.1580206,135.277143 38.0389251,134.733167 C37.848351,133.796395 37.32743,132.959323 36.5711542,132.374594 C35.7753316,131.77637 34.7997594,131.466502 33.8045991,131.495863 C32.8136793,131.46496 31.8421823,131.775158 31.0525286,132.374594 C30.3050727,132.963947 29.7916457,133.799977 29.6040705,134.733167 C29.4608341,135.357613 29.3900206,136.426254 29.3916031,137.939088 C29.3932394,139.451922 29.4640529,140.519757 29.6040705,141.142594 C29.7910468,142.076019 30.304592,142.912242 31.0525286,143.501167 C32.6949363,144.677969 34.9060103,144.672135 36.542185,143.486682 L36.542185,143.486682 Z" id="Shape" fill="#FFFFFF"></path>
                <path d="M46.481022,144.68166 C45.4788901,143.943433 44.7550722,142.888751 44.4266256,141.68818 C44.2045286,140.883481 44.0934802,139.623323 44.0934802,137.907704 C44.0934802,136.192086 44.2021145,134.942389 44.4193833,134.158612 C44.7438469,132.963935 45.4627528,131.914077 46.4592952,131.179616 C47.4571219,130.442512 48.6818737,130.074765 50.1335507,130.076374 C51.4371167,130.042621 52.7161097,130.435049 53.7764229,131.194101 C54.7792236,131.916665 55.5008824,132.964179 55.8187489,134.158612 C55.9464513,134.669212 56.0272568,135.190407 56.0601586,135.715704 C56.1003935,136.290259 56.120511,137.020926 56.120511,137.907704 C56.120511,138.834718 56.1003935,139.580673 56.0601586,140.145572 C56.0265559,140.666023 55.9457542,141.182346 55.8187489,141.68818 C55.5067704,142.893134 54.7845726,143.951675 53.7764229,144.68166 C52.7067141,145.443872 51.4175477,145.8363 50.1045815,145.799387 C48.8070126,145.832989 47.5341925,145.440374 46.481022,144.68166 L46.481022,144.68166 Z M52.8469956,143.486682 C53.5968758,142.902408 54.1166266,142.072345 54.3147665,141.142594 C54.4547841,140.600227 54.524793,139.532392 54.524793,137.939088 C54.524793,136.345784 54.4644405,135.277143 54.3437357,134.733167 C54.1539895,133.796665 53.6339154,132.959577 52.8783789,132.374594 C52.0823781,131.776715 51.1069301,131.466887 50.1118238,131.495863 C49.120849,131.464567 48.1492236,131.774805 47.3597533,132.374594 C46.6124572,132.964089 46.0990694,133.800056 45.9112952,134.733167 C45.7712775,135.357613 45.7012687,136.426254 45.7012687,137.939088 C45.7012687,139.451922 45.7712775,140.519757 45.9112952,141.142594 C46.0984714,142.075941 46.6119771,142.912099 47.3597533,143.501167 C49.0011655,144.678308 51.2118208,144.672473 52.8469956,143.486682 L52.8469956,143.486682 Z" id="Shape" fill="#FFFFFF"></path>
                <path d="M61.0573392,126.83907 C60.4883916,126.315335 60.3728852,125.460761 60.7823793,124.804777 C61.1918733,124.148794 62.0103505,123.877254 62.7307436,124.158383 C63.4511366,124.439512 63.8693448,125.193661 63.7262775,125.953616 C63.5832103,126.713571 62.9194012,127.264022 62.1460969,127.263951 C61.7401073,127.278567 61.3461149,127.124814 61.0573392,126.83907 L61.0573392,126.83907 Z M61.2697797,145.224832 L61.2697797,130.590577 C61.2576028,130.507198 61.2853538,130.422949 61.3446986,130.363129 C61.4040434,130.30331 61.4880693,130.274888 61.5715419,130.2864 L62.5685639,130.2864 C62.6520364,130.274888 62.7360623,130.30331 62.7954071,130.363129 C62.854752,130.422949 62.882503,130.507198 62.870326,130.590577 L62.870326,145.224832 C62.882503,145.30821 62.854752,145.39246 62.7954071,145.45228 C62.7360623,145.512099 62.6520364,145.540521 62.5685639,145.529008 L61.5715419,145.529008 C61.4880693,145.540521 61.4040434,145.512099 61.3446986,145.45228 C61.2853538,145.39246 61.2576028,145.30821 61.2697797,145.224832 L61.2697797,145.224832 Z" id="Shape" fill="#FFFFFF"></path>
                <path d="M70.5061145,145.181378 C69.7401565,144.877951 69.0674631,144.378426 68.5555242,143.73292 C68.1052146,143.164906 67.8601929,142.46132 67.8602643,141.736462 L67.8602643,141.342964 C67.848929,141.259971 67.8770546,141.176452 67.9362844,141.117222 C67.9955143,141.057992 68.0790334,141.029867 68.1620264,141.041202 L69.1011101,141.041202 C69.1841032,141.029867 69.2676223,141.057992 69.3268521,141.117222 C69.3860819,141.176452 69.4142075,141.259971 69.4028722,141.342964 L69.4028722,141.67611 C69.4028722,142.42287 69.7762526,143.066629 70.5230132,143.607387 C71.2697739,144.148145 72.2169046,144.415305 73.3644053,144.408867 C74.4909838,144.408867 75.4083407,144.136879 76.1164758,143.592903 C76.7788308,143.131195 77.1736701,142.374871 77.1738502,141.567475 C77.1916273,141.048297 76.9952249,140.544634 76.6306784,140.174541 C76.2656131,139.810649 75.8280224,139.527695 75.3463789,139.344092 C74.8458561,139.154183 74.1047283,138.90714 73.1229956,138.602964 C72.1970763,138.334975 71.2877928,138.012534 70.3998943,137.637325 C69.7300178,137.347611 69.135423,136.908271 68.6617445,136.353026 C68.1769738,135.761964 67.9246011,135.014289 67.952,134.250348 C67.9200425,133.085298 68.469245,131.98056 69.4173568,131.302735 C70.3942614,130.565631 71.6817797,130.197883 73.2799119,130.199493 C74.2492407,130.180495 75.2121728,130.360428 76.1092335,130.72818 C76.8597196,131.030595 77.5168539,131.526153 78.0139559,132.164568 C78.4666443,132.757606 78.7079801,133.485012 78.6995595,134.231035 L78.6995595,134.320356 C78.7119201,134.404214 78.6838757,134.488975 78.6239388,134.548912 C78.5640019,134.608849 78.4792407,134.636893 78.3953833,134.624533 L77.4587137,134.624533 C77.3752411,134.636045 77.2912152,134.607623 77.2318704,134.547804 C77.1725256,134.487984 77.1447746,134.403734 77.1569515,134.320356 L77.1569515,134.231035 C77.1569515,133.464961 76.7988605,132.821202 76.0826784,132.299757 C75.3664963,131.778312 74.4201703,131.520809 73.2437004,131.527246 C72.1171219,131.527246 71.2102261,131.763828 70.5230132,132.236991 C69.8652527,132.655859 69.4750112,133.388707 69.4946079,134.168268 C69.4621443,134.876008 69.8296902,135.542069 70.4457621,135.891933 C71.3896559,136.39895 72.3893897,136.794306 73.4247577,137.070013 C74.3757376,137.336091 75.310036,137.658541 76.222696,138.035651 C76.906924,138.330597 77.5201442,138.768493 78.0211982,139.319951 C78.5430792,139.920074 78.8136908,140.69819 78.7768106,141.492638 C78.8108761,142.692365 78.2655224,143.835182 77.3114537,144.56337 C76.3329398,145.339099 75.0277181,145.726964 73.3957885,145.726964 C72.4057565,145.740339 71.4231153,145.554811 70.5061145,145.181378 L70.5061145,145.181378 Z" id="Path" fill="#FFFFFF"></path>
                <path d="M23.2574097,154.630154 L24.2568458,154.630154 C24.3398389,154.618818 24.423358,154.646944 24.4825878,154.706174 C24.5418176,154.765404 24.5699432,154.848923 24.5586079,154.931916 L24.5586079,175.495193 C24.5707849,175.578571 24.5430339,175.662821 24.4836891,175.722641 C24.4243442,175.78246 24.3403183,175.810882 24.2568458,175.79937 L23.2574097,175.79937 C23.108745,175.793666 22.9728071,175.713916 22.8952952,175.586929 L11.9473656,157.836074 C11.9280529,157.775722 11.8990837,157.749167 11.8580441,157.761237 C11.8170044,157.773308 11.7976916,157.804691 11.7976916,157.865044 L11.7976916,175.487951 C11.8098686,175.571329 11.7821176,175.655579 11.7227728,175.715398 C11.6634279,175.775218 11.579402,175.803639 11.4959295,175.792127 L10.4964934,175.792127 C10.4130209,175.803639 10.328995,175.775218 10.2696501,175.715398 C10.2103053,175.655579 10.1825543,175.571329 10.1947313,175.487951 L10.1947313,154.931916 C10.183396,154.848923 10.2115216,154.765404 10.2707514,154.706174 C10.3299812,154.646944 10.4135003,154.618818 10.4964934,154.630154 L11.5248987,154.630154 C11.6740739,154.634092 11.8107935,154.7143 11.8870132,154.842594 L22.8035595,172.593449 C22.8252863,172.653801 22.8542555,172.677942 22.8952952,172.668286 C22.9363348,172.658629 22.9556476,172.622418 22.9556476,172.562066 L22.9556476,154.939158 C22.9417532,154.855019 22.968737,154.769291 23.0283187,154.708279 C23.0879004,154.647267 23.172965,154.618258 23.2574097,154.630154 L23.2574097,154.630154 Z" id="Path" fill="#FFFFFF"></path>
                <path d="M39.3763348,161.691387 C40.303348,162.608744 40.7668546,163.843152 40.7668546,165.394612 L40.7668546,175.495193 C40.7790316,175.578571 40.7512806,175.662821 40.6919358,175.722641 C40.6325909,175.78246 40.548565,175.810882 40.4650925,175.79937 L39.4656564,175.79937 C39.3821839,175.810882 39.298158,175.78246 39.2388131,175.722641 C39.1794683,175.662821 39.1517173,175.578571 39.1638943,175.495193 L39.1638943,174.075704 C39.166876,174.038971 39.1492021,174.003623 39.1180264,173.983969 C39.0890573,173.964656 39.0528458,173.983969 39.0118062,174.012938 C38.4762893,174.687591 37.7728022,175.209587 36.9718943,175.526577 C36.0818348,175.879252 35.1312501,176.053949 34.1739559,176.040779 C32.9113227,176.080508 31.6700158,175.708539 30.637304,174.980991 C29.6716652,174.276074 29.1888458,173.197778 29.1888458,171.746101 C29.1888458,170.254189 29.7432834,169.0745 30.8521586,168.207035 C31.9610338,167.339569 33.4835242,166.906641 35.41963,166.908251 L39.0407753,166.908251 C39.0740629,166.913207 39.1077298,166.902095 39.1315271,166.878298 C39.1553244,166.8545 39.1664364,166.820833 39.1614802,166.787546 L39.1614802,165.425995 C39.1614802,164.299417 38.8436241,163.402177 38.2079119,162.734277 C37.5721997,162.066377 36.6001233,161.734036 35.2916828,161.737255 C34.4009913,161.700828 33.5186025,161.921216 32.7496388,162.372162 C32.1236462,162.742989 31.6762866,163.353421 31.511207,164.06203 C31.4862874,164.237205 31.3243434,164.359203 31.1490925,164.334823 L30.089304,164.182735 C29.867207,164.14411 29.7778855,164.06203 29.816511,163.941325 C30.0007457,162.850644 30.64542,161.891987 31.5860441,161.30996 C32.5854802,160.646888 33.8303495,160.314547 35.320652,160.312938 C37.0958179,160.314547 38.4477122,160.77403 39.3763348,161.691387 Z M37.7588899,173.711176 C38.6573667,173.15708 39.192723,172.166395 39.1638943,171.111193 L39.1638943,168.359123 C39.1688505,168.325835 39.1577385,168.292168 39.1339412,168.268371 C39.1101439,168.244574 39.076477,168.233462 39.0431894,168.238418 L35.5644758,168.238418 C34.1321116,168.238418 32.9781733,168.540985 32.1026608,169.146118 C31.2567345,169.693316 30.7578986,170.642477 30.786978,171.649537 C30.786978,172.639317 31.1297797,173.385273 31.8153833,173.887405 C32.587209,174.418505 33.5106648,174.684528 34.4467489,174.645431 C35.6196136,174.67408 36.7738754,174.348497 37.7588899,173.711176 L37.7588899,173.711176 Z" id="Shape" fill="#FFFFFF"></path>
                <path d="M51.5313128,161.918312 L47.9946608,161.918312 C47.9613732,161.913356 47.9277063,161.924468 47.903909,161.948265 C47.8801117,161.972063 47.8689998,162.00573 47.8739559,162.039017 L47.8739559,171.594013 C47.8739559,172.622418 48.1057093,173.346647 48.5692159,173.7667 C49.0327225,174.186753 49.7786784,174.39356 50.8070837,174.387123 L51.5023436,174.387123 C51.5853367,174.375788 51.6688558,174.403913 51.7280856,174.463143 C51.7873154,174.522373 51.815441,174.605892 51.8041057,174.688885 L51.8041057,175.50485 C51.8162827,175.588228 51.7885317,175.672478 51.7291869,175.732297 C51.669842,175.792117 51.5858161,175.820538 51.5023436,175.809026 L50.5946432,175.837995 C49.1815918,175.837995 48.1185844,175.566007 47.4056211,175.02203 C46.6926579,174.478054 46.3241057,173.480227 46.2999648,172.02855 L46.2999648,162.039017 C46.3049209,162.00573 46.293809,161.972063 46.2700117,161.948265 C46.2462144,161.924468 46.2125475,161.913356 46.1792599,161.918312 L44.3662731,161.918312 C44.282895,161.930489 44.1986453,161.902738 44.1388257,161.843393 C44.0790061,161.784049 44.0505847,161.700023 44.0620969,161.61655 L44.0620969,160.860938 C44.0497363,160.77708 44.0777807,160.692319 44.1377176,160.632382 C44.1976544,160.572445 44.2824157,160.544401 44.3662731,160.556762 L46.1792599,160.556762 C46.2125475,160.561718 46.2462144,160.550606 46.2700117,160.526809 C46.293809,160.503011 46.3049209,160.469344 46.2999648,160.436057 L46.2999648,156.988726 C46.2884525,156.905254 46.3168739,156.821228 46.3766935,156.761883 C46.4365131,156.702538 46.5207628,156.674787 46.604141,156.686964 L47.5697797,156.686964 C47.6531579,156.674787 47.7374076,156.702538 47.7972272,156.761883 C47.8570468,156.821228 47.8854682,156.905254 47.8739559,156.988726 L47.8739559,160.436057 C47.8689998,160.469344 47.8801117,160.503011 47.903909,160.526809 C47.9277063,160.550606 47.9613732,160.561718 47.9946608,160.556762 L51.5313128,160.556762 C51.6151702,160.544401 51.6999315,160.572445 51.7598683,160.632382 C51.8198052,160.692319 51.8478496,160.77708 51.835489,160.860938 L51.835489,161.61655 C51.8470012,161.700023 51.8185798,161.784049 51.7587602,161.843393 C51.6989406,161.902738 51.6146909,161.930489 51.5313128,161.918312 L51.5313128,161.918312 Z" id="Path" fill="#FFFFFF"></path>
                <path d="M65.9869251,160.556762 L66.9525639,160.556762 C67.0360364,160.545249 67.1200623,160.573671 67.1794071,160.63349 C67.238752,160.69331 67.266503,160.77756 67.254326,160.860938 L67.254326,175.495193 C67.266503,175.578571 67.238752,175.662821 67.1794071,175.722641 C67.1200623,175.78246 67.0360364,175.810882 66.9525639,175.79937 L65.9869251,175.79937 C65.9034526,175.810882 65.8194267,175.78246 65.7600819,175.722641 C65.700737,175.662821 65.672986,175.578571 65.685163,175.495193 L65.685163,174.012938 C65.685163,173.952585 65.6634361,173.918788 65.6248106,173.909132 C65.586185,173.899475 65.5523877,173.923616 65.5330749,173.983969 C65.1200038,174.641146 64.5267152,175.16572 63.8238943,175.495193 C63.0314529,175.853982 62.1683923,176.02973 61.2987489,176.009396 C59.806837,176.009396 58.5676006,175.566007 57.5810396,174.679229 C56.5944787,173.79245 56.1003935,172.572527 56.0987841,171.019458 L56.0987841,160.860938 C56.0866072,160.77756 56.1143582,160.69331 56.173703,160.63349 C56.2330478,160.573671 56.3170737,160.545249 56.4005463,160.556762 L57.366185,160.556762 C57.4496575,160.545249 57.5336834,160.573671 57.5930283,160.63349 C57.6523731,160.69331 57.6801241,160.77756 57.6679471,160.860938 L57.6679471,170.596991 C57.6679471,171.805649 58.0260382,172.771287 58.7422203,173.493907 C59.4584023,174.216527 60.4111659,174.579446 61.600511,174.582665 C62.8284816,174.582665 63.8158473,174.214917 64.5626079,173.479422 C65.3093686,172.743928 65.6827489,171.778289 65.6827489,170.582506 L65.6827489,160.860938 C65.6703883,160.77708 65.6984327,160.692319 65.7583695,160.632382 C65.8183064,160.572445 65.9030676,160.544401 65.9869251,160.556762 Z" id="Path" fill="#FFFFFF"></path>
                <path d="M82.1637885,160.556762 L83.1294273,160.556762 C83.2128998,160.545249 83.2969257,160.573671 83.3562706,160.63349 C83.4156154,160.69331 83.4433664,160.77756 83.4311894,160.860938 L83.4311894,175.495193 C83.4433664,175.578571 83.4156154,175.662821 83.3562706,175.722641 C83.2969257,175.78246 83.2128998,175.810882 83.1294273,175.79937 L82.1637885,175.79937 C82.080316,175.810882 81.9962901,175.78246 81.9369453,175.722641 C81.8776004,175.662821 81.8498495,175.578571 81.8620264,175.495193 L81.8620264,174.012938 C81.8620264,173.952585 81.8427137,173.918788 81.801674,173.909132 C81.7606344,173.899475 81.7316652,173.923616 81.7099383,173.983969 C81.2972032,174.640531 80.7048788,175.164994 80.0031718,175.495193 C79.2107304,175.853982 78.3476698,176.02973 77.4780264,176.009396 C75.9861145,176.009396 74.7460734,175.566007 73.7579031,174.679229 C72.7697327,173.79245 72.2756476,172.572527 72.2756476,171.019458 L72.2756476,160.860938 C72.2634706,160.77756 72.2912216,160.69331 72.3505664,160.63349 C72.4099113,160.573671 72.4939372,160.545249 72.5774097,160.556762 L73.5430485,160.556762 C73.6269059,160.544401 73.7116671,160.572445 73.771604,160.632382 C73.8315409,160.692319 73.8595853,160.77708 73.8472247,160.860938 L73.8472247,170.596991 C73.8472247,171.805649 74.204511,172.771287 74.9190837,173.493907 C75.6336564,174.216527 76.58642,174.579446 77.7773744,174.582665 C79.0053451,174.582665 79.9935154,174.214917 80.7418855,173.479422 C81.5015084,172.711496 81.9065777,171.661641 81.8596123,170.582506 L81.8596123,160.860938 C81.8472517,160.77708 81.8752961,160.692319 81.935233,160.632382 C81.9951699,160.572445 82.0799311,160.544401 82.1637885,160.556762 Z" id="Path" fill="#FFFFFF"></path>
                <path d="M96.1945198,160.798171 C96.2710999,160.825931 96.3334852,160.883024 96.367907,160.95685 C96.4023288,161.030675 96.4059571,161.115164 96.3779912,161.191669 L96.1051982,162.157308 C96.0937574,162.244509 96.0383378,162.319724 95.9584416,162.356486 C95.8785453,162.393248 95.7853687,162.386405 95.7117004,162.338365 C95.2275982,162.165845 94.713276,162.094366 94.2004758,162.128339 C93.1242989,162.123939 92.1008061,162.593739 91.4025374,163.412638 C90.6624838,164.260553 90.2686334,165.355923 90.2992952,166.480955 L90.2992952,175.492779 C90.3114721,175.576157 90.2837211,175.660407 90.2243763,175.720227 C90.1650315,175.780046 90.0810056,175.808468 89.997533,175.796955 L88.9980969,175.796955 C88.9146244,175.808468 88.8305985,175.780046 88.7712537,175.720227 C88.7119088,175.660407 88.6841578,175.576157 88.6963348,175.492779 L88.6963348,160.860938 C88.6841578,160.77756 88.7119088,160.69331 88.7712537,160.63349 C88.8305985,160.573671 88.9146244,160.545249 88.9980969,160.556762 L89.997533,160.556762 C90.0810056,160.545249 90.1650315,160.573671 90.2243763,160.63349 C90.2837211,160.69331 90.3114721,160.77756 90.2992952,160.860938 L90.2992952,162.915334 C90.2992952,162.975687 90.3137797,163.011898 90.345163,163.021555 C90.3765463,163.031211 90.3982731,163.00707 90.42,162.946718 C90.8050397,162.202554 91.3722864,161.568035 92.0688282,161.102348 C92.775728,160.648627 93.6021289,160.416596 94.4418855,160.436057 C95.046319,160.418696 95.6464582,160.542692 96.1945198,160.798171 Z" id="Path" fill="#FFFFFF"></path>
                <path d="M107.050714,160.798171 C107.127263,160.825871 107.189514,160.883099 107.223542,160.957052 C107.257569,161.031006 107.260534,161.115513 107.231771,161.191669 L106.961392,162.157308 C106.949951,162.244509 106.894532,162.319724 106.814635,162.356486 C106.734739,162.393248 106.641562,162.386405 106.567894,162.338365 C106.083792,162.165845 105.56947,162.094366 105.05667,162.128339 C103.980493,162.123939 102.957,162.593739 102.258731,163.412638 C101.51636,164.26045 101.120718,165.356869 101.150661,166.48337 L101.150661,175.495193 C101.163021,175.579051 101.134977,175.663812 101.07504,175.723749 C101.015103,175.783686 100.930342,175.81173 100.846485,175.79937 L99.8494626,175.79937 C99.76599,175.810882 99.6819641,175.78246 99.6226193,175.722641 C99.5632745,175.662821 99.5355235,175.578571 99.5477004,175.495193 L99.5477004,160.860938 C99.5355235,160.77756 99.5632745,160.69331 99.6226193,160.63349 C99.6819641,160.573671 99.76599,160.545249 99.8494626,160.556762 L100.846485,160.556762 C100.930342,160.544401 101.015103,160.572445 101.07504,160.632382 C101.134977,160.692319 101.163021,160.77708 101.150661,160.860938 L101.150661,162.915334 C101.150661,162.975687 101.165145,163.011898 101.194115,163.021555 C101.223084,163.031211 101.249639,163.00707 101.271366,162.946718 C101.656337,162.203256 102.222606,161.568901 102.91778,161.102348 C103.625731,160.648976 104.452789,160.416997 105.293251,160.436057 C105.899305,160.41794 106.501185,160.541954 107.050714,160.798171 Z" id="Path" fill="#FFFFFF"></path>
                <path d="M118.438009,173.969484 C119.121016,173.525028 119.669483,172.902263 120.02407,172.168568 C120.125463,171.987511 120.26548,171.939229 120.417568,172.018894 L121.204564,172.412392 C121.385621,172.513784 121.445974,172.653801 121.354238,172.803475 C120.91519,173.788129 120.181341,174.612234 119.253974,175.162048 C118.232029,175.765955 117.060911,176.070445 115.874238,176.040779 C114.596746,176.080098 113.33871,175.720659 112.274819,175.012374 C111.29456,174.337533 110.578732,173.343565 110.249392,172.199951 C110.078648,171.650091 109.966969,171.083605 109.916247,170.510083 C109.856699,169.887246 109.826925,169.101055 109.826925,168.151511 C109.826925,167.16495 109.842214,166.418994 109.872793,165.913643 C109.896917,165.445284 109.962352,164.97997 110.068335,164.523123 C110.355729,163.307121 111.055181,162.228089 112.047894,161.46929 C113.108426,160.683672 114.402979,160.278805 115.72215,160.32018 C117.376611,160.32018 118.697122,160.74828 119.683683,161.60448 C120.670244,162.460679 121.285034,163.645196 121.528053,165.15803 C121.595442,165.604253 121.636552,166.05405 121.651172,166.505096 C121.670485,167.020104 121.680141,167.663863 121.680141,168.436374 C121.692531,168.519593 121.664752,168.60376 121.605258,168.663253 C121.545765,168.722747 121.461598,168.750527 121.378379,168.738136 L111.531278,168.738136 C111.49799,168.73318 111.464323,168.744292 111.440526,168.768089 C111.416728,168.791886 111.405616,168.825553 111.410573,168.858841 C111.410573,170.146359 111.461269,171.003364 111.562661,171.429854 C111.753203,172.36996 112.286731,173.205535 113.059401,173.773942 C113.833521,174.348497 114.816059,174.635775 116.007013,174.635775 C116.864804,174.654051 117.709408,174.422561 118.438009,173.969484 Z M111.405744,167.241396 C111.400788,167.274684 111.4119,167.30835 111.435698,167.332148 C111.459495,167.355945 111.493162,167.367057 111.526449,167.362101 L119.963718,167.362101 C119.997006,167.367057 120.030673,167.355945 120.05447,167.332148 C120.078267,167.30835 120.089379,167.274684 120.084423,167.241396 C120.102284,166.482029 120.052193,165.722587 119.934749,164.972145 C119.738769,164.046294 119.226655,163.217522 118.486291,162.628057 C116.855376,161.450781 114.656819,161.439143 113.013533,162.599088 C112.289988,163.167913 111.796198,163.978895 111.623013,164.882823 C111.480138,165.660926 111.407423,166.450287 111.405744,167.241396 Z" id="Shape" fill="#FFFFFF"></path>
                <path d="M127.901269,175.420356 C127.135311,175.116929 126.462617,174.617404 125.950678,173.971898 C125.500031,173.40407 125.254967,172.700362 125.255419,171.97544 L125.255419,171.581942 C125.243906,171.49847 125.272328,171.414444 125.332147,171.355099 C125.391967,171.295754 125.476217,171.268003 125.559595,171.28018 L126.498678,171.28018 C126.581671,171.268845 126.665191,171.29697 126.72442,171.3562 C126.78365,171.41543 126.811776,171.498949 126.800441,171.581942 L126.800441,171.915088 C126.800441,172.661848 127.173821,173.305607 127.920581,173.846365 C128.667342,174.387123 129.614473,174.654283 130.761974,174.647845 C131.888552,174.647845 132.805909,174.375052 133.514044,173.829466 C134.176399,173.367759 134.571238,172.611435 134.571419,171.804039 C134.589676,171.285493 134.393153,170.782392 134.028247,170.413519 C133.662687,170.049652 133.225281,169.765996 132.743947,169.580656 C132.248253,169.389138 131.507125,169.142095 130.520564,168.839528 C129.594688,168.571405 128.685412,168.248967 127.797463,167.873889 C127.128242,167.581927 126.533952,167.141988 126.059313,166.587176 C125.573713,165.997516 125.321192,165.25026 125.349568,164.486911 C125.316799,163.321017 125.866092,162.215192 126.814925,161.536885 C127.793439,160.802999 129.080957,160.435252 130.67748,160.433643 C131.644558,160.416265 132.604959,160.597007 133.499559,160.964744 C134.250585,161.272031 134.907499,161.771585 135.404282,162.413202 C135.853204,163.004243 136.092709,163.727853 136.085057,164.470013 L136.085057,164.561748 C136.096569,164.645221 136.068148,164.729247 136.008328,164.788592 C135.948509,164.847936 135.864259,164.875687 135.780881,164.863511 L134.844211,164.863511 C134.761218,164.874846 134.677699,164.84672 134.618469,164.78749 C134.55924,164.728261 134.531114,164.644741 134.542449,164.561748 L134.542449,164.470013 C134.542449,163.703939 134.184358,163.06018 133.468176,162.538735 C132.751994,162.01729 131.809692,161.759787 130.641269,161.766224 C129.51469,161.766224 128.607794,162.007634 127.920581,162.490453 C127.262093,162.908648 126.871614,163.641942 126.892176,164.421731 C126.858581,165.129734 127.226433,165.796348 127.84333,166.145396 C128.786782,166.646755 129.785807,167.03567 130.819912,167.304162 C131.770848,167.570382 132.705138,167.892829 133.61785,168.269801 C134.30219,168.565648 134.91539,169.004353 135.416352,169.556515 C135.938672,170.156383 136.209347,170.934682 136.171965,171.729202 C136.20331,172.924974 135.658118,174.062962 134.706608,174.787863 C133.729703,175.563593 132.424482,175.951458 130.790943,175.951458 C129.801895,175.96943 128.81929,175.788835 127.901269,175.420356 L127.901269,175.420356 Z" id="Path" fill="#FFFFFF"></path>
                <path d="M148.585251,173.969484 C149.269554,173.525834 149.818995,172.902912 150.173727,172.168568 C150.275119,171.987511 150.415137,171.939229 150.567225,172.018894 L151.351806,172.412392 C151.535278,172.513784 151.593216,172.653801 151.503894,172.803475 C151.06394,173.7883 150.329277,174.612371 149.401216,175.162048 C148.379574,175.766683 147.208244,176.071229 146.02148,176.040779 C144.747256,176.078082 143.492897,175.718729 142.431718,175.012374 C141.451459,174.337533 140.735631,173.343565 140.406291,172.199951 C140.235547,171.650091 140.123868,171.083605 140.073145,170.510083 C140.013598,169.887246 139.983019,169.101055 139.98141,168.151511 C139.98141,167.164145 139.998308,166.418189 140.027278,165.913643 C140.053411,165.445331 140.119639,164.980122 140.225233,164.523123 C140.512628,163.307121 141.21208,162.228089 142.204793,161.46929 C143.265325,160.683672 144.559878,160.278805 145.879048,160.32018 C147.53351,160.32018 148.854021,160.74828 149.840581,161.60448 C150.827142,162.460679 151.441932,163.645196 151.684952,165.15803 C151.751433,165.604313 151.791737,166.054104 151.805656,166.505096 C151.826579,167.020104 151.83704,167.663863 151.83704,168.436374 C151.84943,168.519593 151.82165,168.60376 151.762157,168.663253 C151.702664,168.722747 151.618496,168.750527 151.535278,168.738136 L141.676106,168.738136 C141.642818,168.73318 141.609151,168.744292 141.585354,168.768089 C141.561557,168.791886 141.550445,168.825553 141.555401,168.858841 C141.555401,170.146359 141.606097,171.003364 141.707489,171.429854 C141.896716,172.370491 142.430525,173.206504 143.204229,173.773942 C143.978349,174.348497 144.960887,174.635775 146.151841,174.635775 C147.010466,174.654662 147.856014,174.423143 148.585251,173.969484 L148.585251,173.969484 Z M141.555401,167.241396 C141.550445,167.274684 141.561557,167.30835 141.585354,167.332148 C141.609151,167.355945 141.642818,167.367057 141.676106,167.362101 L150.125445,167.362101 C150.158732,167.367057 150.192399,167.355945 150.216197,167.332148 C150.239994,167.30835 150.251106,167.274684 150.24615,167.241396 C150.264717,166.481925 150.213809,165.722346 150.094062,164.972145 C149.898462,164.046142 149.386274,163.21725 148.645604,162.628057 C147.014689,161.450781 144.816132,161.439143 143.172846,162.599088 C142.449301,163.167913 141.955511,163.978895 141.782326,164.882823 C141.636211,165.660633 141.560264,166.449996 141.555401,167.241396 Z" id="Shape" fill="#FFFFFF"></path>
                <path d="M163.992018,160.798171 C164.068598,160.825931 164.130983,160.883024 164.165405,160.95685 C164.199827,161.030675 164.203455,161.115164 164.175489,161.191669 L163.902696,162.157308 C163.891255,162.244509 163.835836,162.319724 163.755939,162.356486 C163.676043,162.393248 163.582866,162.386405 163.509198,162.338365 C163.025096,162.165845 162.510774,162.094366 161.997974,162.128339 C160.921797,162.123939 159.898304,162.593739 159.200035,163.412638 C158.459982,164.260553 158.066131,165.355923 158.096793,166.480955 L158.096793,175.492779 C158.10897,175.576157 158.081219,175.660407 158.021874,175.720227 C157.962529,175.780046 157.878503,175.808468 157.795031,175.796955 L156.795595,175.796955 C156.712122,175.808468 156.628096,175.780046 156.568751,175.720227 C156.509407,175.660407 156.481656,175.576157 156.493833,175.492779 L156.493833,160.860938 C156.481656,160.77756 156.509407,160.69331 156.568751,160.63349 C156.628096,160.573671 156.712122,160.545249 156.795595,160.556762 L157.795031,160.556762 C157.878503,160.545249 157.962529,160.573671 158.021874,160.63349 C158.081219,160.69331 158.10897,160.77756 158.096793,160.860938 L158.096793,162.915334 C158.096793,162.975687 158.111278,163.011898 158.142661,163.021555 C158.174044,163.031211 158.195771,163.00707 158.217498,162.946718 C158.602537,162.202554 159.169784,161.568035 159.866326,161.102348 C160.573226,160.648627 161.399627,160.416596 162.239383,160.436057 C162.843817,160.418696 163.443956,160.542692 163.992018,160.798171 Z" id="Path" fill="#FFFFFF"></path>
                <path d="M171.794379,175.555546 L166.775471,160.889907 L166.744088,160.769202 C166.744088,160.629185 166.835824,160.556762 167.016881,160.556762 L168.165991,160.556762 C168.327664,160.545087 168.476701,160.644444 168.528106,160.798171 L172.63207,173.317678 C172.647913,173.35352 172.683411,173.376641 172.722599,173.376641 C172.761787,173.376641 172.797285,173.35352 172.813128,173.317678 L176.917093,160.798171 C176.970141,160.644613 177.119537,160.545676 177.281621,160.556762 L178.399348,160.588145 C178.621445,160.588145 178.703524,160.699193 178.640758,160.92129 L173.670132,175.555546 C173.618508,175.710201 173.468142,175.809781 173.305604,175.796955 L172.156493,175.796955 C171.994588,175.809515 171.845057,175.709827 171.794379,175.555546 L171.794379,175.555546 Z" id="Path" fill="#FFFFFF"></path>
                <path d="M191.268899,161.691387 C192.195912,162.608744 192.659419,163.843152 192.659419,165.394612 L192.659419,175.495193 C192.671595,175.578571 192.643844,175.662821 192.5845,175.722641 C192.525155,175.78246 192.441129,175.810882 192.357656,175.79937 L191.360634,175.79937 C191.276777,175.81173 191.192016,175.783686 191.132079,175.723749 C191.072142,175.663812 191.044098,175.579051 191.056458,175.495193 L191.056458,174.075704 C191.05944,174.038971 191.041766,174.003623 191.01059,173.983969 C190.981621,173.964656 190.94541,173.983969 190.906784,174.012938 C190.370362,174.687684 189.666077,175.209654 188.864458,175.526577 C187.974468,175.879494 187.023835,176.0542 186.06652,176.040779 C184.803933,176.080156 183.562735,175.708221 182.529868,174.980991 C181.564229,174.276074 181.08141,173.197778 181.08141,171.746101 C181.08141,170.254189 181.635847,169.0745 182.744722,168.207035 C183.853598,167.339569 185.375283,166.906641 187.30978,166.908251 L190.930925,166.908251 C190.964213,166.913207 190.99788,166.902095 191.021677,166.878298 C191.045474,166.8545 191.056586,166.820833 191.05163,166.787546 L191.05163,165.425995 C191.05163,164.299417 190.734579,163.402177 190.100476,162.734277 C189.466373,162.066377 188.493492,161.734036 187.181833,161.737255 C186.291869,161.700474 185.410156,161.920902 184.642203,162.372162 C184.014325,162.741427 183.565698,163.352398 183.401357,164.06203 C183.376437,164.237205 183.214493,164.359203 183.039242,164.334823 L181.979454,164.182735 C181.757357,164.14411 181.668035,164.06203 181.709075,163.941325 C181.891549,162.850595 182.535595,161.891564 183.476194,161.30996 C184.47563,160.646888 185.720499,160.314547 187.210802,160.312938 C188.989186,160.314547 190.341885,160.77403 191.268899,161.691387 Z M189.651454,173.711176 C190.549931,173.15708 191.085287,172.166395 191.056458,171.111193 L191.056458,168.359123 C191.061414,168.325835 191.050302,168.292168 191.026505,168.268371 C191.002708,168.244574 190.969041,168.233462 190.935753,168.238418 L187.459454,168.238418 C186.028699,168.238418 184.873956,168.540985 183.995225,169.146118 C183.149298,169.693316 182.650462,170.642477 182.679542,171.649537 C182.679542,172.639317 183.022344,173.385273 183.707947,173.887405 C184.479773,174.418505 185.403229,174.684528 186.339313,174.645431 C187.512215,174.674381 188.666564,174.348774 189.651454,173.711176 L189.651454,173.711176 Z" id="Shape" fill="#FFFFFF"></path>
                <path d="M206.569445,161.691387 C207.496458,162.608744 207.959965,163.843152 207.959965,165.394612 L207.959965,175.495193 C207.972142,175.578571 207.944391,175.662821 207.885046,175.722641 C207.825701,175.78246 207.741675,175.810882 207.658203,175.79937 L206.661181,175.79937 C206.577708,175.810882 206.493682,175.78246 206.434337,175.722641 C206.374993,175.662821 206.347242,175.578571 206.359419,175.495193 L206.359419,174.075704 C206.361358,174.039181 206.343933,174.004331 206.313551,173.983969 C206.282167,173.964656 206.24837,173.983969 206.20733,174.012938 C205.671465,174.68826 204.967012,175.210355 204.165004,175.526577 C203.275854,175.879485 202.326012,176.054197 201.36948,176.040779 C200.106144,176.080157 198.864179,175.708245 197.830414,174.980991 C196.864775,174.276074 196.381956,173.197778 196.381956,171.746101 C196.381956,170.254189 196.936394,169.0745 198.045269,168.207035 C199.154144,167.339569 200.67583,166.906641 202.610326,166.908251 L206.231471,166.908251 C206.264759,166.913207 206.298426,166.902095 206.322223,166.878298 C206.34602,166.8545 206.357132,166.820833 206.352176,166.787546 L206.352176,165.425995 C206.352176,164.299417 206.03432,163.402177 205.398608,162.734277 C204.762896,162.066377 203.790015,161.734036 202.479965,161.737255 C201.590029,161.700748 200.708392,161.921157 199.940335,162.372162 C199.312457,162.741427 198.86383,163.352398 198.699489,164.06203 C198.674569,164.237205 198.512625,164.359203 198.337374,164.334823 L197.28,164.182735 C197.057903,164.14411 196.966167,164.06203 197.007207,163.941325 C197.189645,162.849927 197.834775,161.890593 198.77674,161.30996 C199.774567,160.646888 201.019436,160.314547 202.511348,160.312938 C204.288123,160.314547 205.640822,160.77403 206.569445,161.691387 Z M204.956828,173.711176 C205.855857,173.157326 206.392067,172.166763 206.364247,171.111193 L206.364247,168.359123 C206.369203,168.325835 206.358091,168.292168 206.334294,168.268371 C206.310496,168.244574 206.276829,168.233462 206.243542,168.238418 L202.76,168.238418 C201.329245,168.238418 200.175307,168.540985 199.298185,169.146118 C198.451532,169.692651 197.952464,170.642255 197.982502,171.649537 C197.982502,172.639317 198.325304,173.385273 199.010907,173.887405 C199.782582,174.418825 200.706147,174.684879 201.642273,174.645431 C202.81605,174.675323 203.971443,174.349658 204.956828,173.711176 Z" id="Shape" fill="#FFFFFF"></path>
                <path d="M218.717181,161.918312 L215.187771,161.918312 C215.154483,161.913356 215.120816,161.924468 215.097019,161.948265 C215.073222,161.972063 215.06211,162.00573 215.067066,162.039017 L215.067066,171.594013 C215.067066,172.622418 215.298819,173.346647 215.762326,173.7667 C216.225833,174.186753 216.969374,174.390342 217.992952,174.377466 L218.688211,174.377466 C218.77159,174.365289 218.855839,174.39304 218.915659,174.452385 C218.975478,174.51173 219.0039,174.595756 218.992388,174.679229 L218.992388,175.495193 C219.004748,175.579051 218.976704,175.663812 218.916767,175.723749 C218.85683,175.783686 218.772069,175.81173 218.688211,175.79937 L217.782925,175.828339 C216.371483,175.828339 215.307671,175.55635 214.591489,175.012374 C213.875307,174.468397 213.507559,173.470571 213.488247,172.018894 L213.488247,162.039017 C213.493203,162.00573 213.482091,161.972063 213.458294,161.948265 C213.434496,161.924468 213.400829,161.913356 213.367542,161.918312 L211.552141,161.918312 C211.469148,161.929648 211.385629,161.901522 211.326399,161.842292 C211.267169,161.783062 211.239044,161.699543 211.250379,161.61655 L211.250379,160.860938 C211.238202,160.77756 211.265953,160.69331 211.325298,160.63349 C211.384643,160.573671 211.468668,160.545249 211.552141,160.556762 L213.367542,160.556762 C213.400829,160.561718 213.434496,160.550606 213.458294,160.526809 C213.482091,160.503011 213.493203,160.469344 213.488247,160.436057 L213.488247,156.988726 C213.476911,156.905733 213.505037,156.822214 213.564267,156.762984 C213.623497,156.703755 213.707016,156.675629 213.790009,156.686964 L214.755648,156.686964 C214.838641,156.675629 214.92216,156.703755 214.98139,156.762984 C215.040619,156.822214 215.068745,156.905733 215.05741,156.988726 L215.05741,160.436057 C215.052454,160.469344 215.063565,160.503011 215.087363,160.526809 C215.11116,160.550606 215.144827,160.561718 215.178115,160.556762 L218.717181,160.556762 C218.800653,160.545249 218.884679,160.573671 218.944024,160.63349 C219.003369,160.69331 219.03112,160.77756 219.018943,160.860938 L219.018943,161.61655 C219.030278,161.699543 219.002152,161.783062 218.942923,161.842292 C218.883693,161.901522 218.800174,161.929648 218.717181,161.918312 Z" id="Path" fill="#FFFFFF"></path>
                <path d="M248.864423,88.5901184 C251.507859,86.7481625 255.189357,83.3104885 255.300405,77.7484092 C255.457322,69.9436339 251.577868,66.160744 248.299524,64.3646559 C245.866239,63.0447636 243.117205,62.4184648 240.352317,62.5540832 C241.885269,59.2202153 244.246256,52.6369731 244.352476,43.5334136 C244.478009,32.5806559 240.446467,21.7534312 233.293498,13.8400215 C225.329392,5.009255 214.323524,0.2317572 201.46363,0.00724618688 C184.340441,-0.260718571 173.414238,6.95501711 167.296916,13.0699246 C159.016564,21.3406206 154.173885,32.8993167 154.3477,43.9896779 C154.569797,58.7615369 159.571806,70.3636867 169.228194,78.5764444 C157.268758,76.7393167 137.984952,80.3749466 137.528687,102.459105 C137.267965,115.178982 145.133093,122.780973 154.591524,124.813643 C154.591524,124.813643 163.600934,126.897008 173.308018,124.873995 C173.308018,124.873995 177.841692,124.253572 177.810308,119.562982 C177.79341,117.057149 177.71133,111.632673 177.783753,106.437537 L177.836863,106.425466 C181.759771,113.131828 183.662079,116.301537 188.799278,125.014013 L198.38807,125.014013 L198.38807,106.338559 L208.597286,106.3627 C212.121868,106.275792 215.250537,108.028427 215.202256,111.673713 C215.139489,116.456039 211.182784,117.663088 202.330291,117.513414 L202.330291,125.016427 C205.364811,125.19507 207.325057,124.415317 209.497744,126.317625 C210.87378,127.524673 212.189463,130.230876 213.435137,132.990189 L221.027471,148.65285 L230.546256,148.65285 L228.745339,144.947211 C233.241419,147.273124 238.205817,148.550744 243.266132,148.684233 C243.444775,148.684233 243.625833,148.684233 243.80689,148.684233 C256.225004,148.684233 273.403718,137.661466 273.898608,119.154999 C274.311419,103.873766 264.585022,92.1533255 248.864423,88.5901184 Z M271.503824,119.097061 C271.040317,136.386823 254.737921,146.564656 243.331313,146.282207 C235.876581,146.086665 230.05378,143.274242 226.821304,140.971193 L222.924952,132.946735 C220.994037,128.949783 218.811327,125.079445 216.389991,121.35907 C221.911031,118.599757 223.504335,115.27796 223.369145,109.95729 C223.219471,103.958259 217.749128,98.7945061 211.595595,98.7945061 L190.501216,98.7945061 L190.501216,112.504162 C190.629163,112.726259 182.486414,98.816233 182.293286,98.8114048 L160.496405,98.8114048 L160.496405,106.348215 L169.711013,106.348215 L169.711013,117.006453 C168.468443,117.222104 167.212614,117.352768 165.952264,117.397537 C149.505022,117.689643 146.325656,110.850506 146.173568,102.210453 C146.023894,93.659722 152.517815,87.5448145 159.97496,86.760233 C160.940599,86.6588409 166.975841,85.4348938 174.826485,88.5080391 L176.837427,81.0388233 C176.596018,80.8843211 176.332881,80.732233 176.050432,80.5849731 C163.497128,72.7995105 156.979066,60.4731316 156.737656,43.9486383 C156.575912,33.4955986 161.15304,22.5862946 168.98437,14.7670347 C174.669568,9.09390698 184.709797,2.40685852 200.476264,2.40685852 L201.425004,2.40685852 C221.295436,2.74241799 242.249797,17.2583828 241.948035,43.4996162 C241.805604,56.0118805 237.081216,63.6476691 237.032934,63.7225061 C236.737065,64.2040392 236.814928,64.8263972 237.22031,65.2201967 C237.625692,65.6139963 238.250045,65.6737913 238.722802,65.364092 C239.589463,64.7847087 243.505128,64.4612198 247.152828,66.4625061 C249.854203,67.9399334 253.043225,71.0903299 252.910449,77.692885 C252.792159,83.6170788 247.599436,86.637114 245.668159,87.7741537 C245.342256,87.9648673 245.093604,88.1121272 244.94393,88.2159334 C244.546295,88.5015887 244.360605,88.9991445 244.473864,89.4754682 C244.587123,89.9517919 244.976894,90.3125157 245.460546,90.3886206 C261.929515,92.8968673 271.909392,103.897907 271.503824,119.097061 Z" id="Shape" fill="#FFFFFF"></path>
            </g>
        </g>
    </g>
</svg>